<?xml version="1.0" encoding="utf-8"?>
<!-- Generator: Adobe Illustrator 27.5.0, SVG Export Plug-In . SVG Version: 6.00 Build 0)  -->
<svg version="1.1" xmlns="http://www.w3.org/2000/svg" xmlns:xlink="http://www.w3.org/1999/xlink" x="0px" y="0px"
	 viewBox="0 0 2200 2200" style="enable-background:new 0 0 2200 2200;" xml:space="preserve">
<g id="background">
	<rect style="fill:#FFFFFF;" width="2200" height="2200"/>
</g>
<g id="Objects">
	<g>
		<path d="M1729.544,1136.872c-7.727,28.176-16.52,55.986-26.325,83.344c-12.366,34.526-26.346,68.32-41.844,101.124
			c-31.523,66.716-70.182,131.151-114.889,191.474c-44.223,59.656-94.537,115.578-149.565,166.193
			c-55.018,50.605-114.932,96.087-178.075,135.187c-60.937,37.722-125.124,69.655-190.947,94.979
			c-65.823-25.324-130.01-57.256-190.947-94.979c-63.143-39.1-123.058-84.582-178.075-135.187
			c-55.028-50.616-105.343-106.537-149.555-166.193c-44.718-60.334-83.376-124.747-114.9-191.474
			c-30.996-65.608-55.911-135.155-74.046-206.714c-17.941-70.763-29.338-143.84-33.891-217.207
			c-4.552-73.335-2.282-147.273,6.759-219.758c8.093-64.994,21.676-129.117,40.413-190.947
			c54.77,11.451,112.37,16.606,171.596,15.315c66.759-1.442,133.809-10.999,199.299-28.402
			c66.114-17.575,128.74-42.662,186.136-74.562c51.208-28.445,97.249-61.798,137.21-99.326
			c39.961,37.529,86.013,70.881,137.21,99.326c30.856,17.145,63.229,32.33,96.84,45.428c25.604-10.859,53.113-20.416,82.494-28.671
			c-54.221-15.961-105.666-37.378-153.192-63.789c-55.082-30.608-103.556-67.201-144.087-108.765
			c-5.069-5.198-12.011-8.126-19.265-8.126c-7.254,0-14.206,2.927-19.265,8.126c-40.531,41.564-89.005,78.157-144.087,108.765
			c-53.511,29.737-111.994,53.145-173.824,69.579c-123.822,32.922-254.8,35.495-368.796,7.232
			c-13.679-3.39-27.659,4.359-32.04,17.747c-23.656,72.259-40.488,147.768-50.045,224.418
			c-9.449,75.789-11.828,153.085-7.071,229.735c4.768,76.704,16.682,153.106,35.441,227.098
			c18.985,74.917,45.084,147.747,77.554,216.486c33.03,69.902,73.507,137.372,120.324,200.526
			c46.225,62.39,98.831,120.841,156.357,173.759c57.514,52.897,120.152,100.446,186.179,141.332
			c66.835,41.371,137.436,76.101,209.835,103.201c3.046,1.141,6.242,1.711,9.439,1.711s6.393-0.57,9.428-1.711
			c72.41-27.1,143.011-61.819,209.846-103.201c66.028-40.886,128.665-88.435,186.179-141.332
			c57.525-52.919,110.132-111.37,156.367-173.759c23.398-31.577,45.224-64.23,65.328-97.734
			c20.094-33.503,38.465-67.835,54.985-102.792c32.481-68.74,58.569-141.569,77.554-216.486c4.144-16.359,7.964-32.836,11.43-49.421
			C1777.146,1099.817,1753.964,1119.319,1729.544,1136.872z"/>
		<path d="M1632.994,1192.837c-11.709,32.922-24.979,65.102-39.735,96.324c-29.414,62.261-65.522,122.423-107.302,178.796
			c-41.392,55.846-88.51,108.205-140.041,155.592c-51.531,47.409-107.624,89.995-166.731,126.588
			c-48.463,30.006-99.326,56.191-151.287,77.877c-51.961-21.686-102.824-47.871-151.287-77.877
			c-59.107-36.603-115.201-79.19-166.732-126.588c-51.531-47.398-98.648-99.746-140.03-155.592
			c-41.78-56.374-77.888-116.525-107.312-178.796c-28.929-61.227-52.187-126.179-69.138-193.046
			c-16.789-66.243-27.466-134.66-31.728-203.367c-4.262-68.686-2.131-137.91,6.328-205.767
			c4.822-38.68,11.774-77.328,20.707-115.115c32.384,3.778,65.618,5.693,98.982,5.693c111.951,0,226.603-21.482,331.58-62.131
			c76.919-29.78,147.047-69.052,208.63-116.837c45.31,35.15,95.247,65.705,149.114,91.244c10.59-7.082,21.675-13.83,33.266-20.255
			c-63.175-27.993-120.97-62.939-172.274-104.137c-5.898-4.746-14.314-4.746-20.212,0c-61.4,49.324-132.109,89.651-210.179,119.883
			c-101.296,39.218-211.923,59.947-319.924,59.947c-36.904,0-73.615-2.432-109.099-7.211c-8.147-1.098-15.821,4.1-17.823,12.065
			c-10.892,43.437-19.232,88.144-24.807,132.862c-8.707,69.837-10.892,141.085-6.511,211.761
			c4.391,70.698,15.379,141.117,32.653,209.297c17.457,68.88,41.435,135.8,71.247,198.9
			c30.318,64.176,67.513,126.168,110.552,184.242c42.598,57.471,91.093,111.348,144.12,160.123
			c53.026,48.775,110.756,92.611,171.596,130.279c51.875,32.115,106.43,59.979,162.157,82.828c1.959,0.807,4.047,1.205,6.124,1.205
			s4.165-0.398,6.124-1.205c55.728-22.849,110.293-50.713,162.157-82.828c60.84-37.668,118.57-81.493,171.596-130.279
			c53.026-48.765,101.522-102.641,144.12-160.123c43.039-58.074,80.234-120.066,110.562-184.242
			c19.878-42.07,37.163-85.852,51.638-130.774C1660.729,1179.631,1647.018,1186.519,1632.994,1192.837z"/>
		<g>
			<path style="fill:#8DBC50;" d="M722.457,1180.113c97.444,68.663,183.926,152.012,255.518,246.432
				c25.141-41.667,51.072-82.865,77.916-123.459c117.855-178.147,254.064-346.396,417.709-484.393
				c-144.922,51.306-332.733,286.882-332.733,286.882c-70.35-80.224-89.308-176.234-91.53-262.136
				c-2.222-85.902,18.254-174.58,70.412-242.869c61.797-80.891,160.769-124.977,259.593-149.439
				c98.812-24.45,201.215-32.534,299.606-58.638c94.566-25.104,188.663-70.153,247.004-148.106
				c45.666,156.042,59.724,323.365,21.772,481.32c-39.186,163.065-137.393,314.985-281.266,401.17
				c-133.086,79.718-305.728,96.639-446.256,33.102c-76.151,118.041-142.441,242.832-202.683,369.611
				c-11.342,23.882-43.16,29.491-61.501,10.442c-113.936-118.333-257.419-196.207-310.7-222.824
				c-14.043-7.015-22.569-21.784-21.423-37.44c3.748-51.216,31.29-82.182,52.512-98.674
				C689.832,1170.66,708.558,1170.319,722.457,1180.113z"/>
		</g>
	</g>
</g>
</svg>
