<?xml version="1.0" encoding="utf-8"?>
<!-- Generator: Adobe Illustrator 27.5.0, SVG Export Plug-In . SVG Version: 6.00 Build 0)  -->
<svg version="1.1" xmlns="http://www.w3.org/2000/svg" xmlns:xlink="http://www.w3.org/1999/xlink" x="0px" y="0px"
	 viewBox="0 0 1122 1122" style="enable-background:new 0 0 1122 1122;" xml:space="preserve">
<g id="Bg">
	<rect style="fill:#FFFFFF;" width="1122" height="1122"/>
</g>
<g id="Object">
	<g>
		<path style="fill:#616E7D;" d="M891.546,670.328l0.185-0.591c-47.777,0-77.022-29.131-112.176-53.668
			c-25.538-17.808-54.17-33.229-95.382-33.229c-18.518,0-34.227,0.168-47.556,0.556h-97.178c-14.213,0-25.746,11.529-25.746,25.741
			c0,14.213,11.533,25.742,25.746,25.742h55.054h36.18c18.417,3.001,32.466,18.921,32.466,38.176c0,14.6-8.132,27.167-20.072,33.746
			c-2.908,0.777-16.843,4.483-35.489,9.415c-12.01,2.89-23.407,5.948-34.099,9.042l-2.295,0.595
			c-40.072,10.599-83.209,21.96-91.035,23.792c-5.189,0.278-9.907,0.057-14.098-0.98l-143.694-93.162l-26.045-18.828v0.057
			c-1.24-0.834-2.552-1.558-3.906-2.224c-1.91-0.984-3.892-1.836-5.987-2.484c-1.647-0.481-3.35-0.834-5.097-1.112
			c-1.832-0.278-3.706-0.463-5.616-0.463c-2.573,0-5.075,0.26-7.484,0.759c-21.241,1.835-37.955,19.44-37.955,41.141
			c0,11.49,4.762,21.757,12.345,29.227l-0.043,0.036l0.207,0.15c3.001,2.925,6.415,5.467,10.193,7.413l9.9,7.188l225.27,163.306
			v-0.022c0.926,0.353,1.853,0.706,2.779,1.077c5.082,1.743,10.414,2.89,16.087,2.89c3.314,0,6.543-0.353,9.651-0.962l1.133-0.296
			c76.316-19.423,234.022-59.509,307.816-77.688c1.832-0.685,3.542-1.315,5.338-1.982c18.831-4.726,44.491-10.342,60.6-10.342
			v-10.784l0.185-0.018l-0.185-14.808v-93.162V670.328z"/>
		<path style="fill:#616E7D;" d="M434.363,503.098c-2.131-2.152-4.006-4.448-6.002-6.672l-87.47,87.471l13.414,13.414l87.542-87.542
			c-1.112-0.984-2.281-1.836-3.35-2.854c-1.226-1.169-2.559-2.224-3.763-3.447L434.363,503.098z"/>
		<path style="fill:#AAD4C8;" d="M438.739,274.004c-1.226-1.223-2.544-2.241-3.784-3.411l-0.243,0.207
			c-61.989,61.989-63.963,161.003-6.351,225.626c1.996,2.224,3.871,4.519,6.002,6.672l0.371,0.371
			c1.204,1.223,2.537,2.277,3.763,3.447c1.069,1.019,2.238,1.871,3.35,2.854c64.605,57.595,163.565,55.706,225.555-6.284
			l0.371-0.388l-0.371-0.428c-57.007-57.021-145.454-63.304-209.575-19.088C502.04,419.48,495.775,331.048,438.739,274.004z"/>
		<path style="fill:#AAD4C8;" d="M497.3,406.508c-2.223,12.064-3.563,24.502-3.563,37.232l0.057,0.684l0.67,0.022
			c2.131,0,4.241-0.242,6.358-0.299c110.45-3.407,198.99-93.772,198.99-205.056l-0.014-0.666l-0.685-0.036
			C598.442,238.387,514.827,310.883,497.3,406.508z"/>
	</g>
</g>
</svg>
